<?xml version="1.0" standalone="no"?><!DOCTYPE svg PUBLIC "-//W3C//DTD SVG 1.1//EN" "http://www.w3.org/Graphics/SVG/1.1/DTD/svg11.dtd"><svg t="1764578554087" class="icon" viewBox="0 0 1024 1024" version="1.1" xmlns="http://www.w3.org/2000/svg" p-id="9257" xmlns:xlink="http://www.w3.org/1999/xlink" width="200" height="200"><path d="M931.422 594.266L539.859 94.094c-7.437-11.485-21.547-17.61-35.547-14.11-8.421 2.079-15.312 7.22-19.578 14L92.954 594.266c-4.485 5.687-0.438 14.109 6.89 14.109h56.875c5.36 0 10.5-2.516 13.781-6.672l303.297-387.406c2.515-3.281 7.765-1.422 7.765 2.734V936.5c0 4.813 3.938 8.75 8.75 8.75h43.75c4.813 0 8.75-3.938 8.75-8.75V217.031c0-4.156 5.25-6.015 7.766-2.734l303.297 387.406c3.281 4.266 8.422 6.672 13.781 6.672h56.875c7.219 0 11.375-8.422 6.89-14.11z" fill="#ffffff" p-id="9258"></path></svg>